<?xml version="1.0" standalone="no"?>
<!DOCTYPE svg PUBLIC "-//W3C//DTD SVG 20010904//EN"
 "http://www.w3.org/TR/2001/REC-SVG-20010904/DTD/svg10.dtd">
<svg version="1.0" xmlns="http://www.w3.org/2000/svg"
 width="420.000000pt" height="594.000000pt" viewBox="0 0 420.000000 594.000000"
 preserveAspectRatio="xMidYMid meet">

<g transform="translate(0.000000,594.000000) scale(0.100000,-0.100000)"
fill="#000000" stroke="none">
<path d="M2060 4753 c-106 -190 -136 -244 -194 -343 -14 -25 -26 -49 -26 -53
0 -4 28 -7 62 -5 l61 3 45 80 c25 44 52 94 60 110 8 17 25 45 38 63 l22 33 20
-28 c10 -15 30 -48 43 -71 29 -53 46 -82 83 -144 l28 -48 59 0 c32 0 59 4 59
8 0 5 -16 35 -36 68 -20 32 -57 97 -82 143 -26 46 -58 102 -71 125 -13 22 -34
61 -47 86 -13 25 -32 55 -41 68 l-18 22 -65 -117z"/>
<path d="M2090 4478 c-18 -35 -42 -74 -53 -88 l-19 -25 34 -6 c27 -4 37 -1 55
20 l22 25 24 -22 c25 -24 81 -31 75 -9 -5 20 -92 167 -99 167 -3 0 -21 -28
-39 -62z"/>
<path d="M1602 4188 l3 -103 648 -3 647 -2 0 105 0 105 -650 0 -651 0 3 -102z"/>
<path d="M1040 3550 l0 -720 170 0 170 0 2 457 c2 353 6 457 15 460 7 3 39
-22 71 -55 l59 -60 6 135 c4 75 7 186 7 247 l0 111 -71 73 -71 72 -179 0 -179
0 0 -720z"/>
<path d="M2971 4143 l1 -128 -184 -3 -184 -2 -109 -110 -110 -110 254 0 253 0
164 162 164 163 0 77 0 78 -126 0 -125 0 2 -127z"/>
<path d="M770 4105 c0 -20 5 -25 25 -25 23 0 25 -4 25 -45 0 -41 -2 -45 -25
-45 -20 0 -25 -5 -25 -25 0 -24 2 -25 75 -25 73 0 75 1 75 25 0 21 -5 25 -30
25 -29 0 -30 2 -30 45 0 43 1 45 30 45 25 0 30 4 30 25 0 24 -2 25 -75 25 -73
0 -75 -1 -75 -25z"/>
<path d="M1600 3395 l0 -575 105 0 105 0 2 340 3 341 470 2 470 2 3 108 3 107
-476 0 -475 0 0 125 0 125 -105 0 -105 0 0 -575z"/>
<path d="M3340 3925 c0 -20 5 -25 25 -25 23 0 25 -4 25 -45 0 -41 -2 -45 -25
-45 -20 0 -25 -5 -25 -25 0 -24 2 -25 75 -25 73 0 75 1 75 25 0 21 -5 25 -30
25 -29 0 -30 2 -30 45 0 43 1 45 30 45 25 0 30 4 30 25 0 24 -2 25 -75 25 -73
0 -75 -1 -75 -25z"/>
<path d="M770 3832 c0 -66 4 -93 14 -101 12 -10 15 -7 18 21 3 33 3 33 61 36
53 3 57 5 57 27 0 22 -4 24 -57 27 -53 3 -58 5 -61 27 -2 13 -10 31 -18 38
-12 12 -14 2 -14 -75z"/>
<path d="M2673 3292 l-542 -547 -120 120 -121 120 0 -118 0 -117 -125 0 c-69
0 -125 -3 -125 -7 0 -11 479 -493 490 -493 3 0 167 162 364 360 197 198 362
360 366 360 5 0 10 -17 12 -37 l3 -38 173 -3 172 -2 0 475 c0 261 -1 475 -2
474 -2 0 -247 -246 -545 -547z"/>
<path d="M3340 3653 c0 -77 2 -90 20 -101 19 -11 20 -10 20 23 l0 35 55 0 c52
0 55 1 55 25 0 24 -3 25 -55 25 -54 0 -55 0 -55 30 0 19 -7 33 -20 40 -19 10
-20 8 -20 -77z"/>
<path d="M770 3643 c0 -92 10 -119 49 -128 69 -15 101 25 101 130 l0 65 -45 0
-45 0 0 -54 c0 -35 5 -58 15 -66 13 -11 15 -7 15 30 0 29 4 40 13 38 19 -7 20
-63 2 -82 -36 -36 -67 -13 -70 53 -1 33 -8 59 -19 69 -15 15 -16 11 -16 -55z"/>
<path d="M3342 3450 c3 -72 6 -84 27 -101 32 -26 67 -24 96 6 22 21 25 33 25
100 l0 75 -45 0 -45 0 0 -49 c0 -31 5 -53 15 -61 13 -11 15 -7 15 24 0 25 4
36 15 36 23 0 19 -63 -6 -86 -33 -30 -53 -8 -57 59 -2 45 -7 59 -24 68 -20 11
-20 9 -16 -71z"/>
<path d="M770 3458 c0 -24 2 -24 128 -19 15 1 22 7 22 21 0 18 -7 20 -75 20
-71 0 -75 -1 -75 -22z"/>
<path d="M1880 3357 l0 -82 125 -125 124 -124 107 110 c58 60 150 153 202 207
l97 97 -328 0 -327 0 0 -83z"/>
<path d="M770 3327 l0 -87 75 0 c73 0 75 1 75 25 0 20 -5 25 -25 25 -14 0 -25
3 -26 8 -1 4 -2 24 -3 45 -1 21 -9 43 -17 47 -11 8 -15 -1 -17 -45 -2 -30 -7
-55 -12 -55 -10 0 -14 18 -12 61 1 15 -7 34 -18 44 -20 18 -20 17 -20 -68z"/>
<path d="M3340 3275 c0 -24 2 -25 75 -25 73 0 75 1 75 25 0 24 -2 25 -75 25
-73 0 -75 -1 -75 -25z"/>
<path d="M3340 3152 l0 -92 75 0 c73 0 75 1 75 25 0 20 -5 25 -25 25 -22 0
-25 4 -25 39 0 24 -8 48 -20 62 l-19 24 -1 -62 c0 -35 -4 -63 -10 -63 -5 0
-10 22 -10 48 0 36 -5 54 -20 67 -20 18 -20 17 -20 -73z"/>
<path d="M2877 2873 c-10 -9 -9 -443 1 -443 4 0 6 -40 4 -90 l-3 -90 170 0
170 0 1 315 0 315 -168 0 c-93 0 -172 -3 -175 -7z m181 -450 c-10 -2 -28 -2
-40 0 -13 2 -5 4 17 4 22 1 32 -1 23 -4z"/>
<path d="M937 2799 c-21 -38 -26 -48 -121 -214 -38 -66 -76 -133 -84 -150 -9
-16 -38 -65 -64 -108 -26 -43 -48 -81 -48 -84 0 -3 -23 -44 -51 -92 -28 -47
-55 -94 -60 -104 -9 -17 -5 -18 58 -15 l68 3 37 65 c20 36 44 79 52 95 9 17
30 55 48 86 30 50 104 180 166 291 20 37 22 52 20 151 l-3 110 -18 -34z"/>
<path d="M3300 2716 l0 -107 53 -96 c28 -52 62 -112 73 -132 12 -20 37 -63 55
-97 19 -33 58 -104 88 -157 l55 -97 63 0 c35 0 63 3 63 8 0 4 -8 21 -18 37
-10 17 -30 50 -44 75 -28 51 -71 125 -105 185 -12 22 -37 67 -55 99 -18 32
-38 66 -43 75 -6 9 -37 63 -70 121 -32 58 -72 125 -87 149 l-28 45 0 -108z"/>
<path d="M1040 2750 l0 -30 173 2 172 3 0 25 0 25 -172 3 -173 2 0 -30z"/>
<path d="M1040 2630 l0 -30 169 0 c104 0 172 4 176 10 3 6 3 19 0 30 -6 19
-15 20 -176 20 l-169 0 0 -30z"/>
<path d="M1040 2515 c0 -28 -2 -28 240 -29 l105 -1 3 28 3 27 -175 0 -176 0 0
-25z"/>
<path d="M943 2500 c-7 -14 -28 -52 -48 -85 -31 -53 -48 -83 -105 -183 -8 -15
-38 -65 -65 -112 -27 -47 -55 -96 -62 -110 -7 -14 -26 -47 -42 -75 -16 -27
-42 -72 -57 -100 -15 -27 -36 -66 -46 -85 -10 -19 -34 -60 -53 -90 -18 -30
-45 -76 -59 -102 l-25 -48 207 -2 c114 -1 338 -2 497 -2 l290 -1 1 33 1 32
-311 3 c-171 1 -368 0 -438 -1 -142 -4 -144 -3 -106 58 11 19 32 55 46 80 14
24 35 62 48 85 13 22 31 56 41 75 9 19 26 48 37 64 11 17 29 46 39 65 39 72
53 97 71 124 11 16 26 41 35 57 9 15 32 56 51 90 70 125 71 128 68 193 -3 57
-4 60 -15 37z"/>
<path d="M3300 2455 c0 -72 -1 -68 73 -195 11 -19 31 -55 45 -80 13 -24 31
-56 40 -70 29 -44 41 -64 72 -120 17 -30 44 -77 60 -105 16 -27 48 -86 71
-130 22 -44 47 -87 54 -95 6 -8 19 -30 28 -47 19 -40 30 -37 -153 -38 -74 0
-264 -1 -422 -2 l-288 -3 0 -29 c0 -29 1 -29 63 -34 34 -2 181 -3 327 -2 146
2 342 3 437 4 l172 1 -22 43 c-13 23 -31 55 -42 70 -19 30 -45 75 -66 117 -7
14 -26 44 -41 67 -15 23 -28 44 -28 48 0 3 -11 22 -23 43 -13 20 -40 66 -60
102 -19 36 -62 112 -95 170 -89 154 -154 269 -179 314 l-23 41 0 -70z"/>
<path d="M1208 2422 l-168 -2 0 -25 0 -25 175 0 175 0 0 24 c0 14 -3 26 -7 28
-5 2 -83 2 -175 0z"/>
<path d="M1040 2280 l0 -30 176 0 175 0 -3 28 -3 27 -172 3 -173 2 0 -30z"/>
<path d="M1117 1880 c-14 -20 -13 -27 10 -88 13 -36 27 -70 29 -74 6 -9 54
-11 54 -3 0 3 -11 33 -25 67 -14 34 -25 67 -25 73 0 6 -6 19 -13 30 -13 17
-15 17 -30 -5z"/>
<path d="M769 1800 l-15 -90 28 0 c24 0 28 4 29 28 1 62 14 65 32 8 10 -31 22
-56 26 -56 4 0 13 11 19 25 9 19 7 37 -9 87 -26 77 -34 88 -69 88 -26 0 -27
-2 -41 -90z"/>
<path d="M928 1858 c-38 -51 -40 -56 -28 -79 9 -15 15 -18 23 -10 18 18 23 13
19 -24 -4 -32 -2 -35 21 -35 27 0 29 6 43 123 l6 57 -30 0 c-22 0 -36 -8 -54
-32z"/>
<path d="M1202 1870 c3 -12 23 -16 96 -18 59 -2 92 1 92 8 0 5 0 13 0 17 0 4
-43 8 -95 8 -79 0 -95 -3 -93 -15z"/>
<path d="M1425 1868 c-7 -34 -25 -140 -25 -150 0 -4 11 -8 25 -8 14 0 25 1 25
3 0 1 7 40 15 87 8 47 15 86 15 88 0 1 -11 2 -25 2 -17 0 -26 -7 -30 -22z"/>
<path d="M1570 1864 c-6 -14 -10 -32 -10 -40 0 -10 -12 -14 -39 -14 -34 0 -38
-3 -34 -20 4 -14 14 -20 35 -20 29 0 30 -2 24 -31 -5 -28 -4 -30 21 -27 25 3
28 8 39 73 17 99 17 105 -6 105 -13 0 -24 -10 -30 -26z"/>
<path d="M1635 1872 c3 -8 5 -16 5 -18 0 -2 43 -4 95 -4 84 0 95 2 95 18 0 15
-11 17 -100 17 -79 0 -99 -3 -95 -13z"/>
<path d="M1855 1858 c-3 -18 -7 -58 -8 -88 -2 -52 -1 -55 24 -58 25 -3 26 -1
28 50 1 29 3 69 4 88 2 29 -2 36 -20 38 -18 3 -23 -3 -28 -30z"/>
<path d="M2007 1883 c-3 -5 -8 -30 -12 -58 -10 -70 -20 -85 -55 -85 -20 0 -30
-5 -30 -15 0 -19 93 -21 108 -2 11 14 32 106 32 142 0 18 -5 25 -19 25 -11 0
-22 -3 -24 -7z"/>
<path d="M2175 1881 l-90 -6 -9 -37 c-12 -47 4 -68 50 -68 27 0 34 4 34 20 0
11 -7 20 -15 20 -8 0 -15 9 -15 20 0 18 7 20 75 20 68 0 75 2 75 20 0 11 -3
19 -7 18 -5 -1 -48 -4 -98 -7z"/>
<path d="M2355 1872 c3 -8 5 -16 5 -18 0 -10 187 -3 198 8 9 9 12 9 12 0 0 -8
23 -12 76 -12 66 0 75 -2 72 -17 -2 -13 -14 -19 -41 -21 -20 -2 -37 -5 -37 -6
0 -2 9 -24 20 -50 19 -42 24 -46 56 -46 34 0 35 0 20 27 -13 25 -12 28 10 46
18 14 24 28 24 58 0 36 -2 39 -27 40 -254 6 -393 3 -388 -9z"/>
<path d="M2792 1870 c3 -12 24 -16 101 -18 88 -2 97 -1 97 15 0 16 -11 18
-100 18 -84 0 -100 -2 -98 -15z"/>
<path d="M3015 1878 c-5 -17 -25 -141 -25 -156 0 -7 11 -12 24 -12 22 0 25 6
36 73 6 39 14 80 16 90 4 13 -1 17 -21 17 -14 0 -27 -6 -30 -12z"/>
<path d="M3082 1873 c3 -15 16 -18 76 -21 64 -3 72 -5 72 -22 0 -17 -7 -20
-40 -20 -22 0 -40 -3 -40 -6 0 -3 12 -25 26 -50 21 -36 31 -44 55 -44 32 0 34
3 18 32 -9 16 -7 24 11 43 20 21 31 78 17 91 -3 3 -49 8 -102 10 -89 4 -96 3
-93 -13z"/>
<path d="M3304 1873 c3 -8 6 -17 6 -19 0 -2 43 -4 95 -4 89 0 95 1 95 20 0 20
-5 21 -101 19 -83 -1 -99 -4 -95 -16z"/>
<path d="M1047 1773 c-33 -54 -34 -58 -16 -61 24 -4 45 12 64 48 13 26 10 70
-5 70 -4 0 -23 -26 -43 -57z"/>
<path d="M1270 1808 c0 -13 -3 -40 -6 -60 -6 -35 -5 -38 18 -38 22 0 26 6 32
38 11 70 8 82 -19 82 -19 0 -25 -5 -25 -22z"/>
<path d="M1633 1770 l-10 -60 88 0 c68 0 88 3 93 15 4 12 -6 15 -59 15 l-65 0
7 45 c5 43 5 45 -19 45 -23 0 -26 -5 -35 -60z"/>
<path d="M2356 1793 c-11 -70 -8 -83 18 -83 20 0 24 6 30 46 9 70 8 74 -18 74
-19 0 -24 -6 -30 -37z"/>
<path d="M2566 1793 c-11 -70 -8 -83 18 -83 19 0 24 6 30 38 11 69 8 82 -18
82 -19 0 -24 -6 -30 -37z"/>
<path d="M2795 1818 c-2 -7 -6 -35 -10 -61 l-6 -48 92 3 c63 2 94 7 97 16 3 9
-14 12 -63 12 l-68 0 5 45 c5 42 4 45 -19 45 -13 0 -25 -6 -28 -12z"/>
<path d="M3086 1800 c-3 -16 -9 -43 -12 -60 -5 -27 -3 -30 20 -30 27 0 28 3
41 83 5 34 4 37 -19 37 -19 0 -26 -6 -30 -30z"/>
<path d="M3304 1770 l-10 -60 93 0 c76 0 93 3 93 15 0 12 -14 15 -65 15 l-65
0 7 45 c5 43 4 45 -19 45 -22 0 -25 -6 -34 -60z"/>
<path d="M1715 1790 c32 -35 105 -24 105 16 0 2 -28 4 -62 4 -60 0 -61 0 -43
-20z"/>
<path d="M2176 1794 c-8 -22 -9 -21 15 -27 42 -11 6 -27 -62 -27 -55 0 -69 -3
-69 -15 0 -24 161 -21 183 3 21 23 22 46 1 66 -20 21 -60 21 -68 0z"/>
<path d="M2442 1790 c10 -15 24 -20 54 -20 33 0 43 4 47 20 5 18 0 20 -54 20
-57 0 -59 -1 -47 -20z"/>
<path d="M2877 1790 c5 -18 12 -21 52 -18 34 2 47 7 49 21 3 14 -5 17 -51 17
-51 0 -55 -2 -50 -20z"/>
<path d="M3380 1801 c0 -34 102 -42 108 -8 3 14 -5 17 -52 17 -31 0 -56 -4
-56 -9z"/>
<path d="M1430 1540 l0 -30 700 0 700 0 0 30 0 30 -700 0 -700 0 0 -30z"/>
<path d="M1256 1428 c-12 -17 -16 -48 -16 -120 0 -98 0 -98 25 -98 l25 0 0
100 c0 88 -2 100 -17 100 -15 0 -13 4 7 20 20 15 21 20 8 20 -9 0 -24 -10 -32
-22z"/>
<path d="M800 1332 c0 -44 -5 -83 -11 -89 -14 -14 -3 -33 20 -33 33 0 41 22
41 112 0 87 0 88 -25 88 -25 0 -25 -1 -25 -78z"/>
<path d="M872 1313 c3 -93 4 -98 26 -101 22 -3 24 1 24 58 0 135 -1 140 -27
140 l-26 0 3 -97z"/>
<path d="M947 1403 c-4 -3 -7 -41 -7 -83 0 -88 14 -110 68 -110 42 0 52 22 52
119 0 80 0 81 -25 81 -25 0 -25 -1 -25 -86 0 -54 -4 -83 -10 -79 -5 3 -10 42
-10 86 0 70 -2 79 -18 79 -10 0 -22 -3 -25 -7z"/>
<path d="M1170 1332 c0 -47 -5 -83 -12 -90 -21 -21 6 -38 37 -24 24 11 25 15
25 102 0 89 0 90 -25 90 -25 0 -25 -1 -25 -78z"/>
<path d="M1310 1391 c0 -11 5 -21 12 -23 7 -3 12 -31 12 -79 1 -72 2 -74 26
-74 24 0 25 2 28 78 2 59 6 77 17 77 8 0 15 9 15 20 0 18 -7 20 -55 20 -48 0
-55 -3 -55 -19z"/>
<path d="M1437 1403 c-4 -3 -7 -21 -7 -40 0 -24 8 -40 30 -60 17 -15 29 -35
29 -47 -2 -20 -2 -19 -6 2 -7 33 -53 31 -53 -3 0 -27 25 -45 62 -45 31 0 48
18 48 51 0 40 -10 59 -36 70 -16 6 -24 16 -23 31 1 17 2 19 6 6 6 -25 53 -24
53 0 0 10 -5 23 -12 30 -13 13 -80 17 -91 5z"/>
<path d="M1560 1327 c0 -92 13 -117 62 -117 44 0 58 28 58 118 0 81 0 82 -25
82 -25 0 -25 -1 -25 -85 0 -50 -4 -85 -10 -85 -6 0 -10 35 -10 85 0 84 0 85
-25 85 -25 0 -25 -1 -25 -83z"/>
<path d="M1749 1406 c-2 -2 -3 -47 -1 -100 l3 -96 40 0 c32 0 39 3 39 20 0 11
-7 20 -15 20 -8 0 -15 9 -15 20 0 11 7 20 15 20 8 0 15 9 15 20 0 11 -7 20
-15 20 -8 0 -15 9 -15 20 0 11 7 20 15 20 8 0 15 9 15 20 0 17 -7 20 -38 20
-21 0 -41 -2 -43 -4z"/>
<path d="M1892 1313 l3 -98 37 -3 c67 -6 78 8 78 98 0 90 -8 100 -80 100 l-41
0 3 -97z m68 2 c0 -36 -4 -65 -9 -65 -5 0 -7 19 -5 43 1 23 3 52 3 65 1 12 3
22 6 22 3 0 5 -29 5 -65z"/>
<path d="M2032 1313 l3 -98 43 -3 c37 -3 42 -1 42 17 0 14 -6 21 -20 21 -13 0
-20 7 -20 20 0 13 7 20 20 20 13 0 20 7 20 19 0 10 -9 21 -20 24 -11 3 -20 12
-20 21 0 9 8 16 20 16 13 0 20 7 20 20 0 17 -7 20 -45 20 l-46 0 3 -97z"/>
<path d="M2140 1309 c0 -98 0 -100 23 -97 18 2 23 10 25 41 2 24 8 37 18 37 8
0 14 9 14 20 0 11 -7 20 -15 20 -8 0 -15 9 -15 20 0 13 7 20 20 20 13 0 20 7
20 20 0 17 -7 20 -45 20 l-45 0 0 -101z"/>
<path d="M2240 1310 l0 -100 45 0 c38 0 45 3 45 20 0 13 -7 20 -20 20 -13 0
-20 7 -20 20 0 11 7 20 15 20 8 0 15 9 15 20 0 11 -7 20 -15 20 -8 0 -15 9
-15 20 0 11 7 20 15 20 8 0 15 9 15 20 0 17 -7 20 -40 20 l-40 0 0 -100z"/>
<path d="M2352 1398 c-23 -23 -14 -63 23 -97 36 -33 42 -45 25 -56 -5 -3 -10
3 -10 14 0 16 -6 21 -25 21 -20 0 -25 -5 -25 -25 0 -27 25 -45 62 -45 38 0 52
16 51 56 -1 30 -8 44 -33 64 -20 16 -30 33 -27 41 4 10 6 9 6 -3 1 -12 9 -18
27 -18 22 0 25 4 22 28 -3 24 -8 27 -43 30 -23 2 -46 -3 -53 -10z"/>
<path d="M2489 1398 c0 -7 -6 -49 -13 -93 -8 -44 -12 -83 -9 -87 9 -16 45 -7
50 12 3 11 9 20 13 20 4 0 10 -9 13 -20 3 -12 14 -20 27 -20 21 0 22 3 16 53
-4 28 -12 73 -17 100 -10 45 -12 47 -45 47 -20 0 -34 -5 -35 -12z m42 -111
c-8 -8 -11 -3 -11 19 1 25 2 27 11 11 8 -14 8 -22 0 -30z"/>
<path d="M2650 1309 c0 -98 0 -100 23 -97 18 2 23 10 25 41 2 27 8 37 21 37
27 0 41 21 41 62 0 43 -19 58 -74 58 l-36 0 0 -101z m70 40 c0 -10 -4 -19 -10
-19 -5 0 -10 12 -10 26 0 14 4 23 10 19 6 -3 10 -15 10 -26z"/>
<path d="M2774 1397 c-3 -8 -4 -52 -2 -98 l3 -84 45 0 c34 0 46 4 48 17 2 11
-5 18 -20 20 -30 4 -38 38 -9 38 28 0 28 36 1 43 -11 3 -20 12 -20 21 0 9 8
16 20 16 13 0 20 7 20 20 0 17 -7 20 -40 20 -25 0 -43 -5 -46 -13z"/>
<path d="M2887 1403 c-4 -3 -7 -23 -7 -44 0 -30 6 -42 30 -59 19 -14 30 -29
29 -43 -2 -22 -2 -22 -6 1 -6 32 -53 32 -53 -1 0 -31 18 -47 55 -47 38 0 55
16 55 51 0 40 -10 59 -36 70 -16 6 -24 16 -23 31 1 17 2 19 6 6 6 -25 53 -24
53 0 0 10 -5 23 -12 30 -13 13 -80 17 -91 5z"/>
<path d="M3024 1402 c-6 -4 -14 -17 -18 -29 -6 -17 2 -32 35 -68 33 -35 40
-48 30 -58 -9 -9 -13 -7 -17 11 -9 32 -44 30 -44 -3 0 -27 25 -45 62 -45 32 0
48 18 48 55 -1 34 -15 56 -47 74 -23 12 -32 41 -13 41 6 0 10 -7 10 -15 0 -9
9 -15 25 -15 27 0 35 26 13 48 -13 13 -67 16 -84 4z"/>
<path d="M3150 1391 c-5 -11 -10 -49 -10 -84 0 -71 16 -97 63 -97 43 0 57 24
57 100 0 80 -13 100 -65 100 -24 0 -38 -6 -45 -19z m60 -76 c0 -37 -4 -65 -10
-65 -6 0 -10 28 -10 65 0 37 4 65 10 65 6 0 10 -28 10 -65z"/>
<path d="M3295 1398 c-6 -22 -25 -143 -25 -166 0 -30 35 -29 51 0 l12 22 8
-23 c6 -16 15 -21 31 -19 13 2 23 5 22 8 0 3 -6 47 -14 98 l-13 92 -34 0 c-18
0 -35 -6 -38 -12z m45 -93 c0 -14 -4 -25 -10 -25 -11 0 -14 33 -3 43 11 11 13
8 13 -18z"/>
<path d="M3410 1309 l0 -100 37 3 c27 2 39 8 41 21 2 10 -3 17 -12 17 -13 0
-16 14 -16 80 0 79 0 80 -25 80 l-25 0 0 -101z"/>
<path d="M1080 1295 c0 -10 10 -15 30 -15 20 0 30 5 30 15 0 10 -10 15 -30 15
-20 0 -30 -5 -30 -15z"/>
</g>
</svg>
